<?xml version="1.0" encoding="iso-8859-1"?>
<!-- Uploaded to: SVG Repo, www.svgrepo.com, Generator: SVG Repo Mixer Tools -->
<svg height="800px" width="800px" version="1.1" id="Capa_1" xmlns="http://www.w3.org/2000/svg" xmlns:xlink="http://www.w3.org/1999/xlink" 
	 viewBox="0 0 186.833 186.833" xml:space="preserve">
<g>
	<g>
		<g>
			<path style="fill:#B2A393;" d="M93.416,87.223c-16.932,0.757-33.739,11.889-33.662,32.389l0.153,22.713
				c0.08,21.308,16.573,31.488,33.509,31.48V87.223z"/>
			<path style="fill:#9B8B7C;" d="M93.416,87.223c16.938,0.629,33.434,11.635,33.511,32.135c0,0,0.152,22.712,0.152,22.712
				c0.081,21.309-16.727,31.615-33.663,31.735V87.223z"/>
		</g>
	</g>
	<g>
		<path style="fill:#D3C3B6;" d="M93.415,107.235c-13.609,0.827-24.428,14.012-24.428,30.158c0,16.144,10.818,29.331,24.428,30.157
			V107.235z"/>
		<path style="fill:#B2A393;" d="M93.417,107.235c13.608,0.827,24.428,14.012,24.428,30.158c0,16.144-10.819,29.331-24.428,30.157
			V107.235z"/>
	</g>
	<g>
		<g>
			<path style="fill:#232221;" d="M128.237,94.093c10.273,0.487,18.439,8.263,18.439,17.783c0,9.52-8.166,17.296-18.439,17.783
				V94.093z"/>
			<path style="fill:#42403F;" d="M128.236,94.093c-10.272,0.487-18.439,8.263-18.439,17.783c0,9.52,8.167,17.296,18.439,17.783
				V94.093z"/>
		</g>
		<g>
			<path style="fill:#232221;" d="M58.599,94.093c10.272,0.487,18.438,8.263,18.438,17.783c0,9.52-8.166,17.296-18.438,17.783
				V94.093z"/>
			<path style="fill:#42403F;" d="M58.597,94.093c-10.272,0.487-18.438,8.263-18.438,17.783c0,9.52,8.166,17.296,18.438,17.783
				V94.093z"/>
		</g>
	</g>
	<g>
		<g>
			<polygon style="fill:#9B8B7C;" points="147.774,186.833 94.121,173.806 127.358,149.499 147.774,151.267 			"/>
			<g>
				<path style="fill:#232221;" d="M147.776,151.267c10.272,0.488,18.438,8.263,18.438,17.784c0,9.52-8.166,17.296-18.438,17.783
					V151.267z"/>
				<path style="fill:#42403F;" d="M147.774,151.267c-10.272,0.488-18.439,8.263-18.439,17.784c0,9.52,8.167,17.296,18.439,17.783
					V151.267z"/>
			</g>
		</g>
		<g>
			<polygon style="fill:#B2A393;" points="39.736,186.833 94.741,173.806 61.506,149.499 39.736,151.267 			"/>
			<g>
				<path style="fill:#232221;" d="M39.736,151.267c10.273,0.488,17.763,8.263,17.763,17.784c0,9.52-7.49,17.296-17.763,17.783
					V151.267z"/>
				<path style="fill:#42403F;" d="M39.736,151.267c-10.272,0.488-19.117,8.263-19.117,17.784c0,9.52,8.844,17.296,19.117,17.783
					V151.267z"/>
			</g>
		</g>
	</g>
	<g>
		<g>
			<path style="fill:#B2A393;" d="M83.54,14.179c1.836,5.045-0.765,10.625-5.809,12.462l-27.406,9.98
				c-5.047,1.837-10.626-0.764-12.464-5.809l0,0c-1.837-5.045,0.764-10.625,5.81-12.461l27.407-9.981
				C76.122,6.532,81.701,9.134,83.54,14.179L83.54,14.179z"/>
			<path style="fill:#A08E7D;" d="M103.221,14.125c-1.81,5.055,0.822,10.62,5.878,12.43l27.462,9.83
				c5.056,1.809,10.62-0.822,12.429-5.877l0,0c1.811-5.057-0.819-10.621-5.876-12.431l-27.462-9.83
				C110.597,6.438,105.031,9.07,103.221,14.125L103.221,14.125z"/>
		</g>
		<g>
			<path style="fill:#D3C3B6;" d="M93.342,0C76.408,0.739,59.787,11.853,59.843,32.354c0,0,0.112,40.39,0.112,40.39
				c0.058,21.309,16.736,31.505,33.673,31.515L93.342,0z"/>
			<path style="fill:#B2A393;" d="M93.342,0c16.937,0.646,33.618,11.669,33.675,32.17c0.001,0,0.11,40.39,0.11,40.39
				c0.06,21.309-16.563,31.597-33.499,31.7L93.342,0z"/>
		</g>
		<g>
			<path style="fill:#211A18;" d="M81.627,53.374c0.004,1.783-1.437,3.232-3.22,3.237l0,0c-1.783,0.005-3.233-1.437-3.239-3.22
				l-0.016-5.652c-0.005-1.783,1.438-3.232,3.222-3.238l0,0c1.783-0.004,3.232,1.438,3.237,3.221L81.627,53.374z"/>
			<path style="fill:#211A18;" d="M111.808,53.291c0.005,1.783-1.438,3.233-3.221,3.238l0,0c-1.784,0.005-3.233-1.437-3.24-3.219
				l-0.015-5.651c-0.005-1.784,1.438-3.233,3.221-3.239l0,0c1.784-0.005,3.235,1.437,3.239,3.22L111.808,53.291z"/>
		</g>
		<g>
			<path style="fill:#FFE5B5;" d="M59.941,67.575c0.009,3.142,0.015,5.17,0.015,5.17c0.058,21.309,16.736,31.505,33.673,31.515
				l-0.101-36.776L59.941,67.575z"/>
			<path style="fill:#FFD5B3;" d="M93.528,67.484l0.101,36.776c16.936-0.103,33.559-10.391,33.499-31.7c0,0-0.005-2.027-0.013-5.169
				L93.528,67.484z"/>
		</g>
	</g>
	<g>
		<path style="fill:#A08E7D;" d="M82.693,91.833c1.068,1.933,0.367,4.367-1.566,5.435l0,0c-1.935,1.068-4.367,0.367-5.436-1.567
			l-0.968-1.751c-1.067-1.934-0.366-4.367,1.568-5.435l0,0c1.933-1.069,4.366-0.367,5.435,1.567L82.693,91.833z"/>
		<path style="fill:#A08E7D;" d="M103.714,91.939c-1.088,1.923-0.411,4.363,1.511,5.45l0,0c1.923,1.089,4.363,0.411,5.451-1.511
			l0.986-1.74c1.086-1.923,0.41-4.363-1.513-5.452l0,0c-1.924-1.087-4.364-0.41-5.451,1.512L103.714,91.939z"/>
	</g>
</g>
</svg>